<mxfile host="app.diagrams.net" agent="Mozilla/5.0 (Windows NT 10.0; Win64; x64) AppleWebKit/537.36 (KHTML, like Gecko) Chrome/131.0.0.0 Safari/537.36" version="26.0.1">
  <diagram name="Page-1" id="03018318-947c-dd8e-b7a3-06fadd420f32">
    <mxGraphModel dx="3354" dy="1258" grid="1" gridSize="10" guides="1" tooltips="1" connect="1" arrows="1" fold="1" page="1" pageScale="1" pageWidth="1100" pageHeight="850" background="none" math="0" shadow="0">
      <root>
        <mxCell id="0" />
        <mxCell id="1" parent="0" />
        <mxCell id="677b7b8949515195-1" value="" style="whiteSpace=wrap;html=1;rounded=0;shadow=0;labelBackgroundColor=none;strokeColor=#000000;strokeWidth=1;fillColor=none;fontFamily=Verdana;fontSize=12;fontColor=#000000;align=center;comic=1;" parent="1" vertex="1">
          <mxGeometry x="20" y="60" width="1060" height="570" as="geometry" />
        </mxCell>
        <mxCell id="677b7b8949515195-10" value="" style="whiteSpace=wrap;html=1;rounded=0;shadow=0;labelBackgroundColor=none;strokeWidth=1;fillColor=none;fontFamily=Verdana;fontSize=12;align=center;comic=1;" parent="1" vertex="1">
          <mxGeometry x="30" y="80" width="1040" height="50" as="geometry" />
        </mxCell>
        <mxCell id="HjhiuZLruFTGGM_Ddv_2-103" value="" style="verticalLabelPosition=bottom;shadow=0;dashed=0;align=center;html=1;verticalAlign=top;strokeWidth=1;shape=mxgraph.mockup.navigation.scrollBar;strokeColor=#999999;barPos=98.611;fillColor2=#99ddff;strokeColor2=none;direction=north;" parent="1" vertex="1">
          <mxGeometry x="1050" y="142" width="20" height="460" as="geometry" />
        </mxCell>
        <mxCell id="HjhiuZLruFTGGM_Ddv_2-104" value="&lt;font style=&quot;font-size: 16px;&quot;&gt;Order By:&lt;/font&gt;" style="text;html=1;align=center;verticalAlign=middle;whiteSpace=wrap;rounded=0;" parent="1" vertex="1">
          <mxGeometry x="40" y="87.5" width="90" height="30" as="geometry" />
        </mxCell>
        <mxCell id="HjhiuZLruFTGGM_Ddv_2-106" value="&lt;font style=&quot;font-size: 20px;&quot;&gt;Start Date&lt;/font&gt;" style="html=1;shadow=0;dashed=0;shape=mxgraph.bootstrap.rrect;rSize=5;strokeColor=none;strokeWidth=1;fillColor=#6C767D;fontColor=#ffffff;whiteSpace=wrap;align=right;verticalAlign=middle;fontStyle=0;fontSize=14;spacingRight=20;" parent="1" vertex="1">
          <mxGeometry x="120" y="85" width="140" height="35" as="geometry" />
        </mxCell>
        <mxCell id="HjhiuZLruFTGGM_Ddv_2-107" value="" style="shape=triangle;direction=south;fillColor=#ffffff;strokeColor=none;perimeter=none;" parent="HjhiuZLruFTGGM_Ddv_2-106" vertex="1">
          <mxGeometry x="1" y="0.5" width="10" height="5" relative="1" as="geometry">
            <mxPoint x="-17" y="-2.5" as="offset" />
          </mxGeometry>
        </mxCell>
        <mxCell id="gBdz1FRmPUKY2ZFgMoxz-1" value="&lt;font style=&quot;font-size: 18px;&quot;&gt;fourthwallacademy.com/Manage/Sections&lt;/font&gt;" style="html=1;strokeWidth=1;shadow=0;dashed=0;shape=mxgraph.ios7ui.url;fillColor=#e0e0e0;strokeColor=#c0c0c0;buttonText=;strokeColor2=#222222;fontColor=#222222;fontSize=8;spacingTop=2;align=center;whiteSpace=wrap;" parent="1" vertex="1">
          <mxGeometry x="25" y="10" width="1050" height="40" as="geometry" />
        </mxCell>
        <mxCell id="tO5tG9X41Wg9TqtgTlxJ-1" value="Courses" style="html=1;shadow=0;dashed=0;shape=mxgraph.bootstrap.rrect;rSize=5;strokeColor=none;strokeWidth=1;fillColor=none;fontColor=#0085FC;whiteSpace=wrap;align=center;verticalAlign=middle;spacingLeft=0;fontStyle=0;fontSize=16;spacing=5;" parent="1" vertex="1">
          <mxGeometry x="739.35" y="85" width="95" height="40" as="geometry" />
        </mxCell>
        <mxCell id="tO5tG9X41Wg9TqtgTlxJ-2" value="Sections" style="html=1;shadow=0;dashed=0;shape=mxgraph.bootstrap.rrect;rSize=5;strokeColor=none;strokeWidth=1;fillColor=none;fontColor=#0085FC;whiteSpace=wrap;align=center;verticalAlign=middle;spacingLeft=0;fontStyle=0;fontSize=16;spacing=5;" parent="1" vertex="1">
          <mxGeometry x="850" y="86" width="95" height="40" as="geometry" />
        </mxCell>
        <mxCell id="tO5tG9X41Wg9TqtgTlxJ-3" value="Instructors" style="html=1;shadow=0;dashed=0;shape=mxgraph.bootstrap.rrect;rSize=5;strokeColor=none;strokeWidth=1;fillColor=none;fontColor=#0085FC;whiteSpace=wrap;align=center;verticalAlign=middle;spacingLeft=0;fontStyle=0;fontSize=16;spacing=5;" parent="1" vertex="1">
          <mxGeometry x="960" y="86" width="95" height="40" as="geometry" />
        </mxCell>
        <mxCell id="tO5tG9X41Wg9TqtgTlxJ-4" value="" style="line;strokeWidth=2;html=1;strokeColor=#3399FF;" parent="1" vertex="1">
          <mxGeometry x="855.9200000000001" y="111" width="83.15" height="10" as="geometry" />
        </mxCell>
        <mxCell id="tO5tG9X41Wg9TqtgTlxJ-61" value="Advanced Power Mastery" style="shape=table;startSize=40;container=1;collapsible=0;childLayout=tableLayout;strokeColor=default;fontSize=18;fontStyle=1" parent="1" vertex="1">
          <mxGeometry x="40" y="190" width="990" height="292" as="geometry" />
        </mxCell>
        <mxCell id="tO5tG9X41Wg9TqtgTlxJ-62" value="" style="shape=tableRow;horizontal=0;startSize=0;swimlaneHead=0;swimlaneBody=0;strokeColor=inherit;top=0;left=0;bottom=0;right=0;collapsible=0;dropTarget=0;fillColor=none;points=[[0,0.5],[1,0.5]];portConstraint=eastwest;fontSize=16;" parent="tO5tG9X41Wg9TqtgTlxJ-61" vertex="1">
          <mxGeometry y="40" width="990" height="42" as="geometry" />
        </mxCell>
        <mxCell id="tO5tG9X41Wg9TqtgTlxJ-63" value="&lt;b&gt;Instructor&lt;/b&gt;" style="shape=partialRectangle;html=1;whiteSpace=wrap;connectable=0;strokeColor=inherit;overflow=hidden;fillColor=none;top=0;left=0;bottom=0;right=0;pointerEvents=1;fontSize=16;" parent="tO5tG9X41Wg9TqtgTlxJ-62" vertex="1">
          <mxGeometry width="248" height="42" as="geometry">
            <mxRectangle width="248" height="42" as="alternateBounds" />
          </mxGeometry>
        </mxCell>
        <mxCell id="tO5tG9X41Wg9TqtgTlxJ-64" value="&lt;b&gt;From - To&lt;/b&gt;" style="shape=partialRectangle;html=1;whiteSpace=wrap;connectable=0;strokeColor=inherit;overflow=hidden;fillColor=none;top=0;left=0;bottom=0;right=0;pointerEvents=1;fontSize=16;" parent="tO5tG9X41Wg9TqtgTlxJ-62" vertex="1">
          <mxGeometry x="248" width="302" height="42" as="geometry">
            <mxRectangle width="302" height="42" as="alternateBounds" />
          </mxGeometry>
        </mxCell>
        <mxCell id="tO5tG9X41Wg9TqtgTlxJ-65" value="&lt;b&gt;Start Time&lt;/b&gt;" style="shape=partialRectangle;html=1;whiteSpace=wrap;connectable=0;strokeColor=inherit;overflow=hidden;fillColor=none;top=0;left=0;bottom=0;right=0;pointerEvents=1;fontSize=16;" parent="tO5tG9X41Wg9TqtgTlxJ-62" vertex="1">
          <mxGeometry x="550" width="193" height="42" as="geometry">
            <mxRectangle width="193" height="42" as="alternateBounds" />
          </mxGeometry>
        </mxCell>
        <mxCell id="tO5tG9X41Wg9TqtgTlxJ-74" value="&lt;font color=&quot;#3399ff&quot;&gt;Details&lt;/font&gt;" style="shape=partialRectangle;html=1;whiteSpace=wrap;connectable=0;strokeColor=inherit;overflow=hidden;fillColor=none;top=0;left=0;bottom=0;right=0;pointerEvents=1;fontSize=16;" parent="tO5tG9X41Wg9TqtgTlxJ-62" vertex="1">
          <mxGeometry x="743" width="247" height="42" as="geometry">
            <mxRectangle width="247" height="42" as="alternateBounds" />
          </mxGeometry>
        </mxCell>
        <mxCell id="tO5tG9X41Wg9TqtgTlxJ-66" value="" style="shape=tableRow;horizontal=0;startSize=0;swimlaneHead=0;swimlaneBody=0;strokeColor=inherit;top=0;left=0;bottom=0;right=0;collapsible=0;dropTarget=0;fillColor=none;points=[[0,0.5],[1,0.5]];portConstraint=eastwest;fontSize=16;" parent="tO5tG9X41Wg9TqtgTlxJ-61" vertex="1">
          <mxGeometry y="82" width="990" height="41" as="geometry" />
        </mxCell>
        <mxCell id="tO5tG9X41Wg9TqtgTlxJ-67" value="Titanium Templar" style="shape=partialRectangle;html=1;whiteSpace=wrap;connectable=0;strokeColor=inherit;overflow=hidden;fillColor=none;top=0;left=0;bottom=0;right=0;pointerEvents=1;fontSize=16;" parent="tO5tG9X41Wg9TqtgTlxJ-66" vertex="1">
          <mxGeometry width="248" height="41" as="geometry">
            <mxRectangle width="248" height="41" as="alternateBounds" />
          </mxGeometry>
        </mxCell>
        <mxCell id="tO5tG9X41Wg9TqtgTlxJ-68" value="2022-09-01 -&amp;nbsp;2022-12-31" style="shape=partialRectangle;html=1;whiteSpace=wrap;connectable=0;strokeColor=inherit;overflow=hidden;fillColor=none;top=0;left=0;bottom=0;right=0;pointerEvents=1;fontSize=16;" parent="tO5tG9X41Wg9TqtgTlxJ-66" vertex="1">
          <mxGeometry x="248" width="302" height="41" as="geometry">
            <mxRectangle width="302" height="41" as="alternateBounds" />
          </mxGeometry>
        </mxCell>
        <mxCell id="tO5tG9X41Wg9TqtgTlxJ-69" value="11:00:00" style="shape=partialRectangle;html=1;whiteSpace=wrap;connectable=0;strokeColor=inherit;overflow=hidden;fillColor=none;top=0;left=0;bottom=0;right=0;pointerEvents=1;fontSize=16;" parent="tO5tG9X41Wg9TqtgTlxJ-66" vertex="1">
          <mxGeometry x="550" width="193" height="41" as="geometry">
            <mxRectangle width="193" height="41" as="alternateBounds" />
          </mxGeometry>
        </mxCell>
        <mxCell id="tO5tG9X41Wg9TqtgTlxJ-75" value="&lt;span style=&quot;color: rgb(51, 153, 255);&quot;&gt;Details&lt;/span&gt;" style="shape=partialRectangle;html=1;whiteSpace=wrap;connectable=0;strokeColor=inherit;overflow=hidden;fillColor=none;top=0;left=0;bottom=0;right=0;pointerEvents=1;fontSize=16;" parent="tO5tG9X41Wg9TqtgTlxJ-66" vertex="1">
          <mxGeometry x="743" width="247" height="41" as="geometry">
            <mxRectangle width="247" height="41" as="alternateBounds" />
          </mxGeometry>
        </mxCell>
        <mxCell id="tO5tG9X41Wg9TqtgTlxJ-70" value="" style="shape=tableRow;horizontal=0;startSize=0;swimlaneHead=0;swimlaneBody=0;strokeColor=inherit;top=0;left=0;bottom=0;right=0;collapsible=0;dropTarget=0;fillColor=none;points=[[0,0.5],[1,0.5]];portConstraint=eastwest;fontSize=16;" parent="tO5tG9X41Wg9TqtgTlxJ-61" vertex="1">
          <mxGeometry y="123" width="990" height="42" as="geometry" />
        </mxCell>
        <mxCell id="tO5tG9X41Wg9TqtgTlxJ-71" value="Siren Song" style="shape=partialRectangle;html=1;whiteSpace=wrap;connectable=0;strokeColor=inherit;overflow=hidden;fillColor=none;top=0;left=0;bottom=0;right=0;pointerEvents=1;fontSize=16;" parent="tO5tG9X41Wg9TqtgTlxJ-70" vertex="1">
          <mxGeometry width="248" height="42" as="geometry">
            <mxRectangle width="248" height="42" as="alternateBounds" />
          </mxGeometry>
        </mxCell>
        <mxCell id="tO5tG9X41Wg9TqtgTlxJ-72" value="2022-09-01 -&amp;nbsp;2022-12-31" style="shape=partialRectangle;html=1;whiteSpace=wrap;connectable=0;strokeColor=inherit;overflow=hidden;fillColor=none;top=0;left=0;bottom=0;right=0;pointerEvents=1;fontSize=16;" parent="tO5tG9X41Wg9TqtgTlxJ-70" vertex="1">
          <mxGeometry x="248" width="302" height="42" as="geometry">
            <mxRectangle width="302" height="42" as="alternateBounds" />
          </mxGeometry>
        </mxCell>
        <mxCell id="tO5tG9X41Wg9TqtgTlxJ-73" value="15:00:00" style="shape=partialRectangle;html=1;whiteSpace=wrap;connectable=0;strokeColor=inherit;overflow=hidden;fillColor=none;top=0;left=0;bottom=0;right=0;pointerEvents=1;fontSize=16;" parent="tO5tG9X41Wg9TqtgTlxJ-70" vertex="1">
          <mxGeometry x="550" width="193" height="42" as="geometry">
            <mxRectangle width="193" height="42" as="alternateBounds" />
          </mxGeometry>
        </mxCell>
        <mxCell id="tO5tG9X41Wg9TqtgTlxJ-76" value="&lt;span style=&quot;color: rgb(51, 153, 255);&quot;&gt;Details&lt;/span&gt;" style="shape=partialRectangle;html=1;whiteSpace=wrap;connectable=0;strokeColor=inherit;overflow=hidden;fillColor=none;top=0;left=0;bottom=0;right=0;pointerEvents=1;fontSize=16;" parent="tO5tG9X41Wg9TqtgTlxJ-70" vertex="1">
          <mxGeometry x="743" width="247" height="42" as="geometry">
            <mxRectangle width="247" height="42" as="alternateBounds" />
          </mxGeometry>
        </mxCell>
        <mxCell id="tO5tG9X41Wg9TqtgTlxJ-80" style="shape=tableRow;horizontal=0;startSize=0;swimlaneHead=0;swimlaneBody=0;strokeColor=inherit;top=0;left=0;bottom=0;right=0;collapsible=0;dropTarget=0;fillColor=none;points=[[0,0.5],[1,0.5]];portConstraint=eastwest;fontSize=16;" parent="tO5tG9X41Wg9TqtgTlxJ-61" vertex="1">
          <mxGeometry y="165" width="990" height="42" as="geometry" />
        </mxCell>
        <mxCell id="tO5tG9X41Wg9TqtgTlxJ-81" value="Titanium Templar" style="shape=partialRectangle;html=1;whiteSpace=wrap;connectable=0;strokeColor=inherit;overflow=hidden;fillColor=none;top=0;left=0;bottom=0;right=0;pointerEvents=1;fontSize=16;" parent="tO5tG9X41Wg9TqtgTlxJ-80" vertex="1">
          <mxGeometry width="248" height="42" as="geometry">
            <mxRectangle width="248" height="42" as="alternateBounds" />
          </mxGeometry>
        </mxCell>
        <mxCell id="tO5tG9X41Wg9TqtgTlxJ-82" value="2023-01-01 -&amp;nbsp;2023-03-31" style="shape=partialRectangle;html=1;whiteSpace=wrap;connectable=0;strokeColor=inherit;overflow=hidden;fillColor=none;top=0;left=0;bottom=0;right=0;pointerEvents=1;fontSize=16;" parent="tO5tG9X41Wg9TqtgTlxJ-80" vertex="1">
          <mxGeometry x="248" width="302" height="42" as="geometry">
            <mxRectangle width="302" height="42" as="alternateBounds" />
          </mxGeometry>
        </mxCell>
        <mxCell id="tO5tG9X41Wg9TqtgTlxJ-83" value="11:00:00" style="shape=partialRectangle;html=1;whiteSpace=wrap;connectable=0;strokeColor=inherit;overflow=hidden;fillColor=none;top=0;left=0;bottom=0;right=0;pointerEvents=1;fontSize=16;" parent="tO5tG9X41Wg9TqtgTlxJ-80" vertex="1">
          <mxGeometry x="550" width="193" height="42" as="geometry">
            <mxRectangle width="193" height="42" as="alternateBounds" />
          </mxGeometry>
        </mxCell>
        <mxCell id="tO5tG9X41Wg9TqtgTlxJ-84" value="&lt;span style=&quot;color: rgb(51, 153, 255);&quot;&gt;Details&lt;/span&gt;" style="shape=partialRectangle;html=1;whiteSpace=wrap;connectable=0;strokeColor=inherit;overflow=hidden;fillColor=none;top=0;left=0;bottom=0;right=0;pointerEvents=1;fontSize=16;" parent="tO5tG9X41Wg9TqtgTlxJ-80" vertex="1">
          <mxGeometry x="743" width="247" height="42" as="geometry">
            <mxRectangle width="247" height="42" as="alternateBounds" />
          </mxGeometry>
        </mxCell>
        <mxCell id="tO5tG9X41Wg9TqtgTlxJ-85" style="shape=tableRow;horizontal=0;startSize=0;swimlaneHead=0;swimlaneBody=0;strokeColor=inherit;top=0;left=0;bottom=0;right=0;collapsible=0;dropTarget=0;fillColor=none;points=[[0,0.5],[1,0.5]];portConstraint=eastwest;fontSize=16;" parent="tO5tG9X41Wg9TqtgTlxJ-61" vertex="1">
          <mxGeometry y="207" width="990" height="43" as="geometry" />
        </mxCell>
        <mxCell id="tO5tG9X41Wg9TqtgTlxJ-86" value="Siren Song" style="shape=partialRectangle;html=1;whiteSpace=wrap;connectable=0;strokeColor=inherit;overflow=hidden;fillColor=none;top=0;left=0;bottom=0;right=0;pointerEvents=1;fontSize=16;" parent="tO5tG9X41Wg9TqtgTlxJ-85" vertex="1">
          <mxGeometry width="248" height="43" as="geometry">
            <mxRectangle width="248" height="43" as="alternateBounds" />
          </mxGeometry>
        </mxCell>
        <mxCell id="tO5tG9X41Wg9TqtgTlxJ-87" value="2023-01-01 -&amp;nbsp;2023-03-31" style="shape=partialRectangle;html=1;whiteSpace=wrap;connectable=0;strokeColor=inherit;overflow=hidden;fillColor=none;top=0;left=0;bottom=0;right=0;pointerEvents=1;fontSize=16;" parent="tO5tG9X41Wg9TqtgTlxJ-85" vertex="1">
          <mxGeometry x="248" width="302" height="43" as="geometry">
            <mxRectangle width="302" height="43" as="alternateBounds" />
          </mxGeometry>
        </mxCell>
        <mxCell id="tO5tG9X41Wg9TqtgTlxJ-88" value="15:00:00" style="shape=partialRectangle;html=1;whiteSpace=wrap;connectable=0;strokeColor=inherit;overflow=hidden;fillColor=none;top=0;left=0;bottom=0;right=0;pointerEvents=1;fontSize=16;" parent="tO5tG9X41Wg9TqtgTlxJ-85" vertex="1">
          <mxGeometry x="550" width="193" height="43" as="geometry">
            <mxRectangle width="193" height="43" as="alternateBounds" />
          </mxGeometry>
        </mxCell>
        <mxCell id="tO5tG9X41Wg9TqtgTlxJ-89" value="&lt;span style=&quot;color: rgb(51, 153, 255);&quot;&gt;Details&lt;/span&gt;" style="shape=partialRectangle;html=1;whiteSpace=wrap;connectable=0;strokeColor=inherit;overflow=hidden;fillColor=none;top=0;left=0;bottom=0;right=0;pointerEvents=1;fontSize=16;" parent="tO5tG9X41Wg9TqtgTlxJ-85" vertex="1">
          <mxGeometry x="743" width="247" height="43" as="geometry">
            <mxRectangle width="247" height="43" as="alternateBounds" />
          </mxGeometry>
        </mxCell>
        <mxCell id="tO5tG9X41Wg9TqtgTlxJ-90" style="shape=tableRow;horizontal=0;startSize=0;swimlaneHead=0;swimlaneBody=0;strokeColor=inherit;top=0;left=0;bottom=0;right=0;collapsible=0;dropTarget=0;fillColor=none;points=[[0,0.5],[1,0.5]];portConstraint=eastwest;fontSize=16;" parent="tO5tG9X41Wg9TqtgTlxJ-61" vertex="1">
          <mxGeometry y="250" width="990" height="42" as="geometry" />
        </mxCell>
        <mxCell id="tO5tG9X41Wg9TqtgTlxJ-91" value="Siren Song" style="shape=partialRectangle;html=1;whiteSpace=wrap;connectable=0;strokeColor=inherit;overflow=hidden;fillColor=none;top=0;left=0;bottom=0;right=0;pointerEvents=1;fontSize=16;" parent="tO5tG9X41Wg9TqtgTlxJ-90" vertex="1">
          <mxGeometry width="248" height="42" as="geometry">
            <mxRectangle width="248" height="42" as="alternateBounds" />
          </mxGeometry>
        </mxCell>
        <mxCell id="tO5tG9X41Wg9TqtgTlxJ-92" value="2023-04-01 - 2023-06-30" style="shape=partialRectangle;html=1;whiteSpace=wrap;connectable=0;strokeColor=inherit;overflow=hidden;fillColor=none;top=0;left=0;bottom=0;right=0;pointerEvents=1;fontSize=16;" parent="tO5tG9X41Wg9TqtgTlxJ-90" vertex="1">
          <mxGeometry x="248" width="302" height="42" as="geometry">
            <mxRectangle width="302" height="42" as="alternateBounds" />
          </mxGeometry>
        </mxCell>
        <mxCell id="tO5tG9X41Wg9TqtgTlxJ-93" value="15:00:00" style="shape=partialRectangle;html=1;whiteSpace=wrap;connectable=0;strokeColor=inherit;overflow=hidden;fillColor=none;top=0;left=0;bottom=0;right=0;pointerEvents=1;fontSize=16;" parent="tO5tG9X41Wg9TqtgTlxJ-90" vertex="1">
          <mxGeometry x="550" width="193" height="42" as="geometry">
            <mxRectangle width="193" height="42" as="alternateBounds" />
          </mxGeometry>
        </mxCell>
        <mxCell id="tO5tG9X41Wg9TqtgTlxJ-94" value="&lt;span style=&quot;color: rgb(51, 153, 255);&quot;&gt;Details&lt;/span&gt;" style="shape=partialRectangle;html=1;whiteSpace=wrap;connectable=0;strokeColor=inherit;overflow=hidden;fillColor=none;top=0;left=0;bottom=0;right=0;pointerEvents=1;fontSize=16;" parent="tO5tG9X41Wg9TqtgTlxJ-90" vertex="1">
          <mxGeometry x="743" width="247" height="42" as="geometry">
            <mxRectangle width="247" height="42" as="alternateBounds" />
          </mxGeometry>
        </mxCell>
        <mxCell id="tO5tG9X41Wg9TqtgTlxJ-95" value="Advanced Tech Integration" style="shape=table;startSize=40;container=1;collapsible=0;childLayout=tableLayout;strokeColor=default;fontSize=18;fontStyle=1" parent="1" vertex="1">
          <mxGeometry x="40" y="490" width="990" height="116" as="geometry" />
        </mxCell>
        <mxCell id="tO5tG9X41Wg9TqtgTlxJ-96" value="" style="shape=tableRow;horizontal=0;startSize=0;swimlaneHead=0;swimlaneBody=0;strokeColor=inherit;top=0;left=0;bottom=0;right=0;collapsible=0;dropTarget=0;fillColor=none;points=[[0,0.5],[1,0.5]];portConstraint=eastwest;fontSize=16;" parent="tO5tG9X41Wg9TqtgTlxJ-95" vertex="1">
          <mxGeometry y="40" width="990" height="39" as="geometry" />
        </mxCell>
        <mxCell id="tO5tG9X41Wg9TqtgTlxJ-97" value="&lt;b&gt;Instructor&lt;/b&gt;" style="shape=partialRectangle;html=1;whiteSpace=wrap;connectable=0;strokeColor=inherit;overflow=hidden;fillColor=none;top=0;left=0;bottom=0;right=0;pointerEvents=1;fontSize=16;" parent="tO5tG9X41Wg9TqtgTlxJ-96" vertex="1">
          <mxGeometry width="248" height="39" as="geometry">
            <mxRectangle width="248" height="39" as="alternateBounds" />
          </mxGeometry>
        </mxCell>
        <mxCell id="tO5tG9X41Wg9TqtgTlxJ-98" value="&lt;b&gt;From - To&lt;/b&gt;" style="shape=partialRectangle;html=1;whiteSpace=wrap;connectable=0;strokeColor=inherit;overflow=hidden;fillColor=none;top=0;left=0;bottom=0;right=0;pointerEvents=1;fontSize=16;" parent="tO5tG9X41Wg9TqtgTlxJ-96" vertex="1">
          <mxGeometry x="248" width="302" height="39" as="geometry">
            <mxRectangle width="302" height="39" as="alternateBounds" />
          </mxGeometry>
        </mxCell>
        <mxCell id="tO5tG9X41Wg9TqtgTlxJ-99" value="&lt;b&gt;Start Time&lt;/b&gt;" style="shape=partialRectangle;html=1;whiteSpace=wrap;connectable=0;strokeColor=inherit;overflow=hidden;fillColor=none;top=0;left=0;bottom=0;right=0;pointerEvents=1;fontSize=16;" parent="tO5tG9X41Wg9TqtgTlxJ-96" vertex="1">
          <mxGeometry x="550" width="193" height="39" as="geometry">
            <mxRectangle width="193" height="39" as="alternateBounds" />
          </mxGeometry>
        </mxCell>
        <mxCell id="tO5tG9X41Wg9TqtgTlxJ-100" value="&lt;span style=&quot;color: rgb(51, 153, 255);&quot;&gt;Details&lt;/span&gt;" style="shape=partialRectangle;html=1;whiteSpace=wrap;connectable=0;strokeColor=inherit;overflow=hidden;fillColor=none;top=0;left=0;bottom=0;right=0;pointerEvents=1;fontSize=16;" parent="tO5tG9X41Wg9TqtgTlxJ-96" vertex="1">
          <mxGeometry x="743" width="247" height="39" as="geometry">
            <mxRectangle width="247" height="39" as="alternateBounds" />
          </mxGeometry>
        </mxCell>
        <mxCell id="tO5tG9X41Wg9TqtgTlxJ-101" value="" style="shape=tableRow;horizontal=0;startSize=0;swimlaneHead=0;swimlaneBody=0;strokeColor=inherit;top=0;left=0;bottom=0;right=0;collapsible=0;dropTarget=0;fillColor=none;points=[[0,0.5],[1,0.5]];portConstraint=eastwest;fontSize=16;" parent="tO5tG9X41Wg9TqtgTlxJ-95" vertex="1">
          <mxGeometry y="79" width="990" height="37" as="geometry" />
        </mxCell>
        <mxCell id="tO5tG9X41Wg9TqtgTlxJ-102" value="Ms. Mirage" style="shape=partialRectangle;html=1;whiteSpace=wrap;connectable=0;strokeColor=inherit;overflow=hidden;fillColor=none;top=0;left=0;bottom=0;right=0;pointerEvents=1;fontSize=16;" parent="tO5tG9X41Wg9TqtgTlxJ-101" vertex="1">
          <mxGeometry width="248" height="37" as="geometry">
            <mxRectangle width="248" height="37" as="alternateBounds" />
          </mxGeometry>
        </mxCell>
        <mxCell id="tO5tG9X41Wg9TqtgTlxJ-103" value="2022-09-01 - 2022-12-31" style="shape=partialRectangle;html=1;whiteSpace=wrap;connectable=0;strokeColor=inherit;overflow=hidden;fillColor=none;top=0;left=0;bottom=0;right=0;pointerEvents=1;fontSize=16;" parent="tO5tG9X41Wg9TqtgTlxJ-101" vertex="1">
          <mxGeometry x="248" width="302" height="37" as="geometry">
            <mxRectangle width="302" height="37" as="alternateBounds" />
          </mxGeometry>
        </mxCell>
        <mxCell id="tO5tG9X41Wg9TqtgTlxJ-104" value="11:00:00" style="shape=partialRectangle;html=1;whiteSpace=wrap;connectable=0;strokeColor=inherit;overflow=hidden;fillColor=none;top=0;left=0;bottom=0;right=0;pointerEvents=1;fontSize=16;" parent="tO5tG9X41Wg9TqtgTlxJ-101" vertex="1">
          <mxGeometry x="550" width="193" height="37" as="geometry">
            <mxRectangle width="193" height="37" as="alternateBounds" />
          </mxGeometry>
        </mxCell>
        <mxCell id="tO5tG9X41Wg9TqtgTlxJ-105" value="&lt;span style=&quot;color: rgb(51, 153, 255);&quot;&gt;Details&lt;/span&gt;" style="shape=partialRectangle;html=1;whiteSpace=wrap;connectable=0;strokeColor=inherit;overflow=hidden;fillColor=none;top=0;left=0;bottom=0;right=0;pointerEvents=1;fontSize=16;" parent="tO5tG9X41Wg9TqtgTlxJ-101" vertex="1">
          <mxGeometry x="743" width="247" height="37" as="geometry">
            <mxRectangle width="247" height="37" as="alternateBounds" />
          </mxGeometry>
        </mxCell>
        <mxCell id="0OKqhLGBSDTET0gaC4oV-1" value="&lt;font style=&quot;font-size: 16px;&quot;&gt;Course:&lt;/font&gt;" style="text;html=1;align=center;verticalAlign=middle;whiteSpace=wrap;rounded=0;" parent="1" vertex="1">
          <mxGeometry x="290" y="90" width="60" height="30" as="geometry" />
        </mxCell>
        <mxCell id="0OKqhLGBSDTET0gaC4oV-2" value="&lt;font style=&quot;font-size: 20px;&quot;&gt;All&lt;/font&gt;" style="html=1;shadow=0;dashed=0;shape=mxgraph.bootstrap.rrect;rSize=5;strokeColor=none;strokeWidth=1;fillColor=#6C767D;fontColor=#ffffff;whiteSpace=wrap;align=right;verticalAlign=middle;fontStyle=0;fontSize=14;spacingRight=20;" parent="1" vertex="1">
          <mxGeometry x="350" y="88.5" width="140" height="35" as="geometry" />
        </mxCell>
        <mxCell id="0OKqhLGBSDTET0gaC4oV-3" value="" style="shape=triangle;direction=south;fillColor=#ffffff;strokeColor=none;perimeter=none;" parent="0OKqhLGBSDTET0gaC4oV-2" vertex="1">
          <mxGeometry x="1" y="0.5" width="10" height="5" relative="1" as="geometry">
            <mxPoint x="-17" y="-2.5" as="offset" />
          </mxGeometry>
        </mxCell>
        <mxCell id="0OKqhLGBSDTET0gaC4oV-4" value="&lt;font style=&quot;font-size: 16px;&quot;&gt;Apply&lt;/font&gt;" style="rounded=1;fillColor=#0057D8;strokeColor=none;html=1;whiteSpace=wrap;fontColor=#ffffff;align=center;verticalAlign=middle;fontStyle=0;fontSize=12;sketch=0;" parent="1" vertex="1">
          <mxGeometry x="520" y="89.5" width="86" height="33" as="geometry" />
        </mxCell>
        <mxCell id="I1E0HHeERDVE4gLx4jid-1" value="Add Section" style="html=1;shadow=0;dashed=0;shape=mxgraph.bootstrap.rrect;rSize=5;strokeColor=none;strokeWidth=1;fillColor=none;fontColor=#0085FC;whiteSpace=wrap;align=center;verticalAlign=middle;spacingLeft=0;fontStyle=0;fontSize=16;spacing=5;" parent="1" vertex="1">
          <mxGeometry x="40" y="142" width="95" height="40" as="geometry" />
        </mxCell>
      </root>
    </mxGraphModel>
  </diagram>
</mxfile>
